<svg xmlns="http://www.w3.org/2000/svg" viewBox="0 0 64 64">
  <rect width="64" height="64" rx="14" fill="#1b4332"/>
  <g stroke="#faf7f0" stroke-width="3.2" stroke-linecap="round" fill="none">
    <path d="M32 52V22"/>
    <path d="M32 30c-7 0-11-4.5-11-11 7 0 11 4.5 11 11z" fill="#faf7f0" stroke="none"/>
    <path d="M32 30c7 0 11-4.5 11-11-7 0-11 4.5-11 11z" fill="#d8a539" stroke="none"/>
    <path d="M32 42c-6.5 0-10.5-4-10.5-10.5 6.5 0 10.5 4 10.5 10.5z" fill="#faf7f0" stroke="none"/>
    <path d="M32 42c6.5 0 10.5-4 10.5-10.5-6.5 0-10.5 4-10.5 10.5z" fill="#d8a539" stroke="none"/>
  </g>
</svg>
